
        <svg xmlns="http://www.w3.org/2000/svg" xmlns:xlink="http://www.w3.org/1999/xlink" version="1.1" width="3162.0029455081003" 
        height="741.899852724595" viewBox="0 0 3162.0029455081003 741.899852724595">
			<rect fill="#000000" width="3162.0029455081003" height="741.899852724595"/>
			<g transform="scale(8.100147275405009) translate(10, 10)">
				<defs id="SvgjsDefs2294"></defs><g id="SvgjsG2295" featureKey="symbolFeature-0" transform="matrix(0.8838383838383838,0,0,0.8838383838383838,-8.42297871907552,-12.40025313213618)" fill="#ffffff"><path xmlns="http://www.w3.org/2000/svg" d="M14.03,50.03l13.5,13.5l13.5-13.5l-13.5-13.5L14.03,50.03 M27.53,32.03l18,18l-18,18l-18-18L27.53,32.03" style="fill-rule: evenodd; clip-rule: evenodd;"></path><path xmlns="http://www.w3.org/2000/svg" d="M27.53,54.53l4.5-4.5l-4.5-4.5l-4.5,4.5L27.53,54.53 M18.53,50.03l9-9l9,9l-9,9L18.53,50.03" style="fill-rule: evenodd; clip-rule: evenodd;"></path><path xmlns="http://www.w3.org/2000/svg" d="M68.03,72.53l-18-18l-18,18l18,18L68.03,72.53 M72.53,72.53l-22.5,22.5l-22.5-22.5l22.5-22.5L72.53,72.53" style="fill-rule: evenodd; clip-rule: evenodd;"></path><path xmlns="http://www.w3.org/2000/svg" d="M59.03,72.53l-9-9l-9,9l9,9L59.03,72.53 M63.53,72.53l-13.5,13.5l-13.5-13.5l13.5-13.5L63.53,72.53" style="fill-rule: evenodd; clip-rule: evenodd;"></path><polyline xmlns="http://www.w3.org/2000/svg" points="54.53,72.53 50.03,77.03 45.53,72.53 50.03,68.03 54.53,72.53 " style="fill-rule: evenodd; clip-rule: evenodd;"></polyline><path xmlns="http://www.w3.org/2000/svg" d="M41.03,27.53l9,9l9-9l-9-9L41.03,27.53 M36.53,27.53l13.5-13.5l13.5,13.5l-13.5,13.5L36.53,27.53" style="fill-rule: evenodd; clip-rule: evenodd;"></path><polyline xmlns="http://www.w3.org/2000/svg" points="45.53,27.53 50.03,23.03 54.53,27.53 50.03,32.03 45.53,27.53 " style="fill-rule: evenodd; clip-rule: evenodd;"></polyline><path xmlns="http://www.w3.org/2000/svg" d="M72.53,45.53l-4.5,4.5l4.5,4.5l4.5-4.5L72.53,45.53 M81.53,50.03l-9,9l-9-9l9-9L81.53,50.03" style="fill-rule: evenodd; clip-rule: evenodd;"></path></g><g id="SvgjsG2296" featureKey="nameFeature-0" transform="matrix(1.7555397556130934,0,0,1.7555397556130934,81.6826870119557,-19.026311785460692)" fill="#ffffff"><path d="M14.52 40.44 l0 -3.2 c-3.64 2.32 -5.64 3.2 -7.16 3.2 c-2.92 0 -4.36 -2.6 -4.36 -5.48 l0 -6.68 c0 -1.56 -0.16 -1.92 -0.84 -2.24 l-0.84 -0.4 l0 -0.92 l5.76 -1.48 l0.8 0 l0 10.2 c0 2.4 0.8 3.96 2.6 3.96 c0.96 0 2.36 -0.56 4.04 -1.64 l0 -7.24 c0 -1.56 -0.24 -1.96 -1.44 -2.32 l-1.84 -0.56 l0 -0.92 l7.36 -1.48 l0.8 0 l0 12.24 c0 2 0.2 2.4 1.16 2.4 c0.36 0 0.68 -0.04 1.2 -0.24 l0 1.24 l-6.48 1.56 l-0.76 0 z M25.040000000000003 40.36 l-0.44 -5.08 l1.28 0 c0.68 2.24 2.44 3.44 4.16 3.44 c1.12 0 2.08 -0.84 2.08 -1.84 c0 -2.76 -7.52 -3.72 -7.52 -8.56 c0 -3.04 2.52 -5.08 6.28 -5.08 c1.52 0 2.8 0.24 4.48 0.84 l0.08 4.28 l-1.28 0 c-0.72 -2.2 -2.04 -3.4 -3.76 -3.4 c-1.04 0 -1.84 0.64 -1.84 1.52 c0 3.28 7.88 3.4 7.88 8.88 c0 2.96 -2.12 5.04 -5.2 5.04 c-2.76 0 -3.68 -0.56 -4.24 -0.56 c-0.24 0 -0.48 0.16 -0.8 0.52 l-1.16 0 z M59.040000000000006 28.8 l0 7.24 c0 1.88 0.76 2.68 2.24 2.68 l0 1.28 l-9.4 0 l0 -1.28 c1.72 0 2.28 -0.72 2.28 -2.8 l0 -5.72 c0 -2.64 -0.8 -3.92 -2.44 -3.92 c-1.44 0 -3.04 0.72 -5.64 2.52 l0 7.36 c0 1.8 0.8 2.56 2.36 2.56 l0.32 0 l0 1.28 l-10.08 0 l0 -1.28 l0.24 0 c1.68 0 2.28 -0.72 2.28 -2.8 l0 -7.8 c0 -0.88 -0.4 -1.24 -1.72 -1.72 l-0.88 -0.32 l0 -0.96 l6.76 -2.32 l0.72 0 l0 4.6 c4.28 -3.04 6.6 -4.16 8.64 -4.16 c2.28 0 3.84 1.52 4.16 4.16 c2.84 -2.08 6.44 -4.16 8.92 -4.16 c2.92 0 4.2 2.08 4.2 6.88 l0 6.24 c0 1.96 0.68 2.36 2.24 2.36 l0 1.28 l-9.4 0 l0 -1.28 c1.64 -0.12 2.28 -1.24 2.28 -4.52 l0 -3.48 c0 -3.2 -0.88 -4.44 -2.48 -4.44 c-1.24 0 -2.88 0.68 -5.6 2.52 z M76.72 32.08 c0 -5.04 4.32 -8.84 10.04 -8.84 c5.48 0 9.44 3.48 9.44 8.32 c0 5.08 -4.32 8.88 -10.04 8.88 c-5.52 0 -9.44 -3.48 -9.44 -8.36 z M82 29.72 c0 3.36 1.44 9 5.28 9 c2.32 0 3.64 -1.8 3.64 -4.96 c0 -5.12 -2.16 -8.8 -5.2 -8.8 c-2.36 0 -3.72 1.76 -3.72 4.76 z M117.72 30.119999999999997 l0 6.24 c0 1.96 0.72 2.36 2.28 2.36 l0 1.28 l-9.44 0 l0 -1.28 c1.64 -0.12 2.28 -1.24 2.28 -4.52 l0 -3.48 c0 -3.2 -0.88 -4.44 -2.48 -4.44 c-1.24 0 -2.56 0.6 -4.24 1.76 l0 8.12 c0 1.8 0.76 2.56 2.36 2.56 l0.36 0 l0 1.28 l-10.12 0 l0 -1.28 l0.24 0 c1.68 0 2.28 -0.72 2.28 -2.8 l0 -7.8 c0 -0.88 -0.48 -1.4 -1.88 -1.8 l-0.84 -0.24 l0 -0.96 l6.84 -2.32 l0.76 0 l0 3.56 c2.92 -1.92 5.48 -3.12 7.4 -3.12 c2.92 0 4.2 2.08 4.2 6.88 z M122.56 32.08 c0 -5.04 4.32 -8.84 10.04 -8.84 c5.48 0 9.44 3.48 9.44 8.32 c0 5.08 -4.32 8.88 -10.04 8.88 c-5.52 0 -9.44 -3.48 -9.44 -8.36 z M127.84 29.72 c0 3.36 1.44 9 5.28 9 c2.32 0 3.64 -1.8 3.64 -4.96 c0 -5.12 -2.16 -8.8 -5.2 -8.8 c-2.36 0 -3.72 1.76 -3.72 4.76 z M143.92 24.96 l0 -1.28 l10.16 0 l0 1.28 l-1.4 0 c-0.84 0 -1.2 0.76 -0.52 2.24 l3.56 7.96 l3.12 -7.04 c0.92 -2.08 0.44 -2.88 -2.36 -3.16 l0 -1.28 l7.96 0 l0 1.28 c-2.08 0.2 -2.6 0.72 -3.36 2.4 l-5.72 12.92 l-2.4 0 l-5.96 -12.84 c-0.76 -1.64 -1.32 -2.28 -3.08 -2.48 z"></path></g>
			</g>
		</svg>
	